<?xml version="1.0" encoding="utf-8"?>
<!-- Generator: Adobe Illustrator 27.5.0, SVG Export Plug-In . SVG Version: 6.00 Build 0)  -->
<svg version="1.1" xmlns="http://www.w3.org/2000/svg" xmlns:xlink="http://www.w3.org/1999/xlink" x="0px" y="0px"
	 viewBox="0 0 500 500" style="enable-background:new 0 0 500 500;" xml:space="preserve">
<g id="BACKGROUND">
</g>
<g id="OBJECTS">
	<circle style="fill:#BAE3FA;" cx="250" cy="253" r="213.012"/>
	<path id="SVGID_x5F_1_x5F_" style="fill:none;" d="M250,450.645c109.156,0,197.645-88.489,197.645-197.645
		S359.156,55.355,250,55.355S52.355,143.844,52.355,253S140.844,450.645,250,450.645z"/>
	<text>	<textPath  xlink:href="#SVGID_x5F_1_x5F_" startOffset="67.4847%">
<tspan  style="fill:#27348B; font-family:'IntroHeadR-Base'; font-size:40px;">online doctor</tspan>	</textPath>
</text>
	<g>
		<path style="fill:#FC6B6E;" d="M109.7,402.42c-1.028,0-1.028,1.606,0,1.606C110.729,404.026,110.738,402.42,109.7,402.42z"/>
		<path style="fill:#FC6B6E;" d="M107.002,397.849c-0.441,0.037-0.808,0.349-0.881,0.743c-0.523,0.395-0.138,1.23,0.459,1.359
			c0.67,0.156,1.414-0.349,1.487-1.047C108.131,398.28,107.626,397.803,107.002,397.849z"/>
		<path style="fill:#FC6B6E;" d="M105.57,404.724c-1.019,0-1.019,1.588,0,1.588C106.598,406.312,106.598,404.724,105.57,404.724z"/>
		<path style="fill:#FC6B6E;" d="M102.467,401.383c0.009,0.083,0.009,0.156,0.009,0.229c0.009,1.037,1.588,1.037,1.606,0
			c0-0.073,0-0.147,0-0.229C104.101,400.345,102.458,400.345,102.467,401.383z"/>
		<path style="fill:#FC6B6E;" d="M122.707,384.172c-0.211-0.083-0.358,0.046-0.404,0.211c-0.11-0.018-0.229-0.018-0.358,0.055
			c-9.638,5.315-19.634,10.216-29.272,15.623c-3.029,1.23-5.994,2.708-8.839,4.259c-0.156,0.083-0.184,0.275-0.119,0.422
			c-3.323,5.15,0.615,15.76,7.16,15.999c0.193,0.009,0.312-0.101,0.367-0.239c13.328-6.343,26.353-14.136,39.011-21.717
			c0.156-0.101,0.239-0.229,0.275-0.367c0.128-0.101,0.229-0.257,0.238-0.477C131.088,392.387,128.16,386.191,122.707,384.172z
			 M104.413,409.607c-2.029-2.901-3.571-5.865-5.113-9.032c0.073,0.046,0.165,0.064,0.266,0.009
			c1.551-0.762,3.084-1.551,4.608-2.378c0.982-0.532,3.469-2.543,4.525-2.506c1.413,0.046,1.955,2.212,2.488,3.277
			c0.789,1.56,1.588,3.121,2.396,4.672c-3.011,2.065-6.095,4.011-9.143,6.012C104.432,409.644,104.432,409.625,104.413,409.607z"/>
	</g>
	<g>
		<path style="fill:#27348B;" d="M67.486,363.046c-0.273-0.991-1.822-0.564-1.549,0.427
			C66.21,364.464,67.761,364.046,67.486,363.046z"/>
		<path style="fill:#27348B;" d="M71.175,359.229c-0.152-0.415-0.551-0.686-0.951-0.652c-0.52-0.4-1.222,0.194-1.188,0.803
			c0.028,0.687,0.712,1.27,1.404,1.155C71.059,360.432,71.385,359.819,71.175,359.229z"/>
		<path style="fill:#27348B;" d="M64.166,359.677c-0.271-0.982-1.802-0.56-1.531,0.422C62.909,361.09,64.44,360.668,64.166,359.677z
			"/>
		<path style="fill:#27348B;" d="M66.563,355.797c-0.077,0.031-0.148,0.05-0.219,0.07c-0.998,0.285-0.578,1.807,0.427,1.548
			c0.071-0.019,0.142-0.039,0.221-0.061C67.997,357.097,67.56,355.513,66.563,355.797z"/>
		<path style="fill:#27348B;" d="M88.535,370.734c0.024-0.226-0.14-0.333-0.311-0.333c-0.012-0.111-0.044-0.226-0.148-0.331
			c-7.686-7.878-15.068-16.211-22.842-24.065c-1.991-2.593-4.204-5.058-6.456-7.389c-0.121-0.128-0.314-0.104-0.439-0.003
			c-5.848-1.834-15.03,4.783-13.52,11.155c0.042,0.188,0.181,0.274,0.328,0.291c9.658,11.162,20.633,21.647,31.307,31.834
			c0.139,0.124,0.285,0.169,0.427,0.168c0.132,0.097,0.309,0.153,0.524,0.103C82.843,380.996,88.038,376.526,88.535,370.734z
			 M59.151,359.86c2.257-2.727,4.705-5.001,7.348-7.33c-0.025,0.083-0.018,0.176,0.062,0.259c1.147,1.293,2.315,2.561,3.517,3.81
			c0.774,0.805,3.373,2.669,3.619,3.696c0.331,1.375-1.613,2.473-2.498,3.269c-1.294,1.176-2.586,2.36-3.867,3.552
			c-2.792-2.354-5.487-4.809-8.227-7.215C59.121,359.887,59.139,359.882,59.151,359.86z"/>
	</g>
	<g>
		<path style="fill:#FFFFFF;" d="M365.403,73.151c1.207,0.018,2.426-0.925,2.543-2.159c0.134-1.434-1.314-2.069-2.535-2.029
			c-0.16,0.005-0.293,0.067-0.381,0.16c-0.903-0.019-1.721,0.612-1.857,1.59C363.001,72.004,364.147,73.137,365.403,73.151z"/>
		<path style="fill:#FFFFFF;" d="M364.171,71.043c-0.078-0.552,0.314-1.052,0.819-1.23c0.08,0.084,0.182,0.147,0.337,0.175
			c0.512,0.073,1.416,0.031,1.562,0.682c0.165,0.714-0.636,1.337-1.25,1.435C364.947,72.21,364.271,71.747,364.171,71.043z"/>
		<path style="fill:#27348B;" d="M386.984,63.777c-0.071-0.129-0.193-0.193-0.332-0.208c-0.099-0.359-0.47-0.671-0.93-0.504
			c-4.93,1.836-9.836,3.956-14.302,6.731c-1.351-3.047-4.758-4.836-7.904-3.073c-2.706,1.515-3.309,5.131-1.479,7.494
			c-0.07,0.003-0.136,0.014-0.21,0.049c-4.958,2.033-9.925,4.648-14.557,7.349c-0.224,0.127-0.242,0.368-0.151,0.539
			c-0.009,0.045-0.01,0.107,0.009,0.169c2.575,8.764,6.79,17.28,10.57,25.585c4.063,8.903,8.366,17.691,12.89,26.366
			c0.217,0.415,0.664,0.417,0.968,0.222c0.047,0.079,0.124,0.134,0.223,0.107c6.456-1.787,12.734-6.182,18.695-9.207
			c6.721-3.416,13.465-6.761,20.213-10.119c0.22-0.114,0.331-0.288,0.376-0.472c0.214-0.192,0.315-0.494,0.153-0.834
			C403.095,97.29,395.458,80.259,386.984,63.777z"/>
		<path style="fill:#FC6B6E;" d="M376.85,73.155c0.193,0.021,0.332-0.178,0.254-0.364c-0.152-0.365-0.38-0.673-0.653-0.95
			c2.551-1.177,5.104-2.284,7.713-3.337c-0.023,0.123-0.014,0.25,0.041,0.387c5.976,14.832,11.776,30.813,21.622,43.609
			c-10.373,4.861-20.76,9.951-30.826,15.418c0.011-0.148-0.034-0.309-0.175-0.455c-5.992-6.049-9.198-13.936-12.743-21.53
			c-3.423-7.337-6.156-15.062-9.695-22.323c2.571-1.197,5.139-2.423,7.659-3.728c0.086,0.224,0.192,0.448,0.331,0.656
			c0.119,0.187,0.321,0.142,0.468,0.022c0.096,0.117,0.263,0.19,0.449,0.112c5.176-2.003,10.311-4.414,15.259-6.919
			C376.816,73.618,376.895,73.377,376.85,73.155z"/>
		<path style="fill:#FFFFFF;" d="M362.671,75.532c0.266-0.167,0.302-0.478,0.204-0.706c0.236-0.081,0.386-0.365,0.194-0.641
			c-1.594-2.251-1.239-5.598,1.564-6.692c2.853-1.097,4.763,0.964,6.007,3.27c0,0,0.004,0.008,0.008,0.017
			c-0.111,0.367,0.137,0.869,0.644,0.802c1.025-0.13,2.033-0.018,2.994,0.339c0.603,0.222,1.146,0.554,1.694,0.853
			c-5.068,2.166-10.182,4.536-15.018,7.192c-0.096-0.868-0.07-1.714,0.177-2.48C361.397,76.724,361.876,76.04,362.671,75.532z"/>
	</g>
	<path style="fill:#27348B;" d="M283.793,46.042c-0.863,0.128-1.762,0.303-2.671,0.459c0.826-2.552,0.964-5.278-0.009-8.16
		c-1.845-5.489-7.132-9.105-12.906-9.014c-6.526,0.11-10.951,4.966-14.631,9.821c-1.992-5.388-6.407-9.739-12.328-10.483
		c-6.324-0.789-12.658,2.754-14.824,8.83c-1.487,4.149-1.046,8.454,0.468,12.429c-4.828,0.367-9.666,0.633-14.512,0.945
		c-0.532,0.037-0.542,0.817,0,0.835c5.039,0.193,10.069-0.009,15.09-0.404c0.936,2.075,2.157,4.03,3.534,5.801
		c5.012,6.416,12.089,12.731,19.102,17.073c0.56,0.468,1.138,0.927,1.716,1.377c0.018,0.009,0.028,0.009,0.046,0.018
		c0.294,0.248,0.744,0.34,1.111,0.009c7.352-6.664,14.998-13.108,22.066-20.066c2.286-2.24,4.323-4.81,5.544-7.628
		c1.203-0.138,2.396-0.285,3.589-0.468C285.087,47.281,284.702,45.895,283.793,46.042z M266.096,61.481l-14.172,12.842
		c-0.074-0.046-0.147-0.092-0.211-0.147c-0.018-0.074-0.055-0.156-0.128-0.22c-2.534-2.405-5.462-4.709-8.399-7.086
		c-5.609-4.553-11.235-9.381-14.117-15.705c1.01-0.083,2.02-0.184,3.038-0.285c0.285-0.028,0.468-0.193,0.569-0.404
		c0.202,0.055,0.459-0.018,0.56-0.266c0.477-1.138,4.149-10.088,4.186-10.07c0.982,0.477,1.928,7.233,2.166,8.179
		c1.423,5.535,2.331,11.648,5.131,16.697c0.128,0.239,0.33,0.34,0.532,0.34c0.34,0,0.698-0.294,0.734-0.688
		c0.239-2.157,0.486-4.323,0.716-6.49c0.211-1.872-0.028-5.764,1.285-7.013c1.276-1.23,4.672-0.854,6.425-0.991
		c2.515-0.202,5.021-0.395,7.536-0.588c0.578-0.046,0.799-0.642,0.652-1.056c0.44-2.12,0.908-4.186,1.551-6.233
		c1.616,5.205,3.231,10.409,4.865,15.614c0.083,0.266,0.358,0.45,0.643,0.477C268.436,59.434,267.225,60.462,266.096,61.481z
		 M278.598,48.502c-1.909,3.57-5.076,6.536-8.27,9.307c2.047-5.021,2.387-10.951,2.772-16.494c0.514,2.102,0.854,4.222,0.982,6.462
		c0.018,0.358,0.303,0.725,0.698,0.698c1.34-0.101,2.671-0.229,4.002-0.376C278.717,48.236,278.671,48.373,278.598,48.502z
		 M279.35,46.74c-0.505,0.055-1.001,0.083-1.496,0.083c-2.386-0.018-2.029,0.174-2.625-2.029c-0.67-2.515-0.964-4.947-1.854-7.426
		c-0.275-0.753-1.285-0.597-1.359,0.183c-0.551,5.792-0.514,12.465-2.322,18.138c-1.652-5.15-3.305-10.29-4.966-15.43
		c-0.184-0.56-0.927-0.532-1.12,0c-0.927,2.589-1.597,5.158-1.771,7.876c-4.984,0.413-9.969,0.826-14.953,1.23
		c-0.413,0.036-0.661,0.294-0.707,0.707c-0.431,4.057-0.863,8.114-1.294,12.181c-1.478-3.415-2.212-7.169-3.167-10.73
		c-1.184-4.415-2.396-8.821-3.58-13.227c-0.11-0.422-0.79-0.569-0.982-0.129c-1.716,3.727-3.369,7.518-4.608,11.428
		c-0.11-0.083-0.248-0.147-0.44-0.129c-1.212,0.119-2.414,0.22-3.617,0.321c-0.312-0.817-0.578-1.652-0.789-2.524
		c-1.707-7.004,1.037-14.732,8.582-16.669c7.591-1.946,14.255,3.396,16.219,10.51c0.202,0.734,1.092,0.743,1.496,0.202
		c3.947-5.36,9.096-11.593,16.614-10.152C277.937,32.567,281.691,40.085,279.35,46.74z"/>
	<g>
		<path style="fill:#FC6B6E;" d="M39.632,212.075c-0.344-4.14-0.067-8.92-1.238-12.924c-0.591-2.048-2.201-3.3-4.386-3.01
			c-7.383,0.981-4.784,11.986-3.758,16.487c0.03,0.137,0.127,0.21,0.236,0.244c0.037,0.117,0.146,0.216,0.321,0.226
			c2.758,0.076,5.523,0.041,8.285-0.129c0.422-0.026,0.597-0.426,0.518-0.732C39.617,212.178,39.638,212.133,39.632,212.075z"/>
		<path style="fill:#27348B;" d="M32.655,245.817c-0.774,0.059-1.585,0.066-2.328,0.262c-0.339,0.086-0.39,0.468-0.218,0.685
			c-0.351,0.838-0.588,1.899-0.094,2.66c0.005,0.071,0.043,0.137,0.114,0.17c0.102,0.118,0.217,0.224,0.365,0.324
			c0.701,0.459,1.722,0.339,2.519,0.37c1.33,0.066,2.684,0.185,4.016,0.109c0.111-0.005,0.208-0.036,0.274-0.087
			c1.921,0.03,3.85-0.063,5.762-0.253c0.806-0.039,1.618-0.085,2.424-0.15c0.52-0.044,0.653-0.684,0.352-0.942
			c0.014-0.052,0.04-0.09,0.048-0.148c0.066-0.473,0.035-0.953-0.016-1.428c-0.029-0.228-0.077-0.449-0.139-0.671
			c-0.081-0.242-0.196-0.321-0.349-0.518c-0.038-0.053-0.103-0.066-0.168-0.067c0.029-0.22-0.071-0.456-0.349-0.505
			c-1.075-0.173-2.224-0.159-3.328-0.163c-0.127-2.242-0.494-4.467-0.686-6.71c-0.153-1.781-0.117-3.747-0.543-5.52
			c2.41-0.124,4.821-0.275,7.219-0.464c0.533-0.044,0.654-0.697,0.366-0.955c0.007-0.045,0.008-0.097,0.002-0.143
			c-0.077-0.488-0.218-0.964-0.276-1.458c-0.07-0.508-0.023-1-0.022-1.5c0.004-0.246-0.183-0.36-0.365-0.35
			c-0.056-0.189-0.209-0.347-0.443-0.338c-0.948,0.037-1.918,0.21-2.875,0.396c-0.838-9.439-1.703-18.865-2.548-28.297
			c-0.194-2.113-0.081-4.753-1.921-6.217c-0.949-0.755-2.58-1.079-4.111-1.155c-0.47-4.772-1.07-9.546-2.289-14.181
			c-0.085-0.339-0.67-0.309-0.624,0.068c0.504,4.701,1.209,9.386,1.648,14.099c-0.435,0.013-0.851,0.045-1.196,0.085
			c-5.587,0.724-6.305,6.288-6.189,10.944c0.209,8.156,1.004,17.062,3.211,24.919c0.037,0.143,0.178,0.224,0.308,0.225
			c0.162,0.009,0.313-0.086,0.297-0.287c-0.471-5.525-1.508-10.988-2.006-16.513c-0.458-5.129-2.762-16.687,4.541-17.949
			c2.402-0.41,5.57,0.367,6.751,2.865c0.584,1.236,0.368,3.465,0.501,4.87c0.264,2.99,0.509,5.986,0.774,8.977
			c0.529,5.98,1.071,11.974,1.607,17.948c0.055,0.676,0.922,0.806,1.201,0.382c0.967-0.017,1.948-0.047,2.898-0.201
			c-0.241,0.86-0.231,1.911,0.067,2.747c-6.479,0.489-12.961,0.672-19.45,0.966c-0.006-0.059-0.018-0.111-0.049-0.169
			c-0.506-0.865-0.628-1.756-0.632-2.711c1.244,0.163,2.661,0.029,3.798-0.472c0.19-0.081,0.097-0.375-0.091-0.371
			c-0.065-0.001-0.143-0.002-0.208-0.003c-1.175-0.012-2.357,0.008-3.538-0.01c-0.117-0.002-0.215,0.042-0.287,0.112
			c-0.065,0.012-0.13,0.037-0.164,0.121c-0.525,1.212-0.295,2.637,0.343,3.758c0.057,0.098,0.134,0.151,0.212,0.178
			c0.037,0.131,0.132,0.242,0.308,0.252c2.219,0.087,4.438,0.096,6.659,0.066c-0.35,2-0.091,4.153,0.059,6.168
			c0.157,2.021,0.273,4.094,0.644,6.086C33.844,245.752,33.247,245.768,32.655,245.817z"/>
	</g>
	<g>
		<path style="fill:#FC6B6E;" d="M406.276,393.012c0.22-0.073,0.303-0.331,0.239-0.532c0.661-0.698,1.322-1.386,1.992-2.074
			c1.634,1.579,3.378,3.029,4.984,4.645c1.781,1.799,3.295,3.809,4.984,5.682c-0.9,0.707-1.845,1.368-2.818,1.992
			c-0.34,0.202-0.174,0.633,0.119,0.698c0.082,1.34,0.9,2.845,2.157,3.415c0.018,0.009,0.037,0.009,0.055,0.018
			c0.193,0.147,0.459,0.193,0.743,0.009c7.398-4.938,13.346-12.722,14.677-21.681c0.294-1.964,0.275-3.919,0.147-5.865
			c1.34,0.028,2.717,0.064,4.158,0.073c8.821,0.055,16.651-5.269,20.249-13.255c0.184-0.404-0.009-0.789-0.312-0.982
			c-0.477-1.019-1.652-1.744-2.772-1.707c-0.367-0.165-0.826-0.083-0.909,0.413c-0.147,0.918-0.413,1.781-0.78,2.589
			c-3.626-4.204-7.407-8.527-11.795-11.96c1.074-0.606,2.23-1.12,3.515-1.496c0.303-0.092,0.312-0.395,0.156-0.569
			c0.184-1.23-0.551-2.488-1.827-2.735c-0.138-0.028-0.248,0-0.331,0.055c-0.129-0.257-0.404-0.45-0.716-0.321
			c-8.353,3.396-12.915,10.868-13.319,19.735c-0.083,1.946-0.037,3.892,0,5.838c-1.505-0.009-3.011,0.064-4.507,0.312
			c-8.784,1.469-15.118,8.537-20.295,15.237c-0.11,0.138-0.073,0.312,0.009,0.422C403.797,392.15,405.073,393.398,406.276,393.012z
			 M428.645,383.558c-1.505-1.23-3.158-2.359-4.828-3.295c-0.119-0.073-0.238-0.064-0.33-0.028c-0.229,0.11-0.321,0.468-0.046,0.661
			c1.744,1.221,3.387,2.488,5.03,3.818c-0.193,1.175-0.468,2.341-0.863,3.497c-0.587,1.726-1.349,3.341-2.258,4.847
			c-3.176-3.057-6.572-5.975-10.005-8.738c1.092-0.799,2.221-1.542,3.424-2.194c1.606-0.881,3.167-1.487,4.709-1.909
			c1.818-0.505,3.607-0.744,5.443-0.845C428.893,380.776,428.819,382.172,428.645,383.558z M408.983,389.928
			c1.836-1.872,3.745-3.653,5.829-5.223c0.009,0.018,0.018,0.046,0.036,0.064c3.139,3.222,6.425,6.388,9.84,9.317
			c-1.496,2.24-3.314,4.241-5.397,5.985C416.85,396.243,412.967,392.315,408.983,389.928z M441.082,374.847
			c-0.477,0.092-0.945,0.138-1.423,0.193c-0.018-0.036-0.037-0.073-0.064-0.101c-2.139-2.166-4.121-4.691-6.462-6.636
			c-0.009-0.018-0.028-0.009-0.046-0.018c0.294-2.873,1.092-5.544,2.405-7.866c4.039,3.956,7.738,8.123,11.474,12.364
			C445.112,373.782,443.074,374.489,441.082,374.847z M432.987,369.56c0.009-0.165,0.027-0.321,0.037-0.477
			c1.432,2.203,3.433,4.186,5.287,6.067c-1.707,0.101-3.415,0.055-5.122-0.018C433.014,373.286,432.886,371.423,432.987,369.56z
			 M452.492,367.761c-1.111,1.79-2.699,3.277-4.525,4.434c-3.424-4.608-7.683-8.748-12.135-12.364
			c1.221-1.964,2.827-3.635,4.819-4.911C444.424,359.344,448.673,363.364,452.492,367.761z"/>
	</g>
	<g>
		<path style="fill:#27348B;" d="M470.769,245.409c-3.589-1.771-7.334,0.817-10.326,2.607c-5.012,3.011-10.051,6.058-14.824,9.445
			c-0.56,0.312-1.065,0.67-1.514,1.065c-0.028,0.027-0.055,0.046-0.083,0.064c-0.055,0.037-0.092,0.092-0.12,0.147
			c-3.717,3.608-3.332,10.088,1.983,12.631c3.433,1.643,6.784,0.284,9.758-1.643c4.332-2.827,9.041-5.425,13.172-8.527
			c0.588-0.441,1.184-0.982,1.753-1.588c2.745-2.313,4.599-5.59,3.91-9.069C474.321,248.493,473.256,246.63,470.769,245.409z
			 M456.569,267.265c-2.662,1.799-5.618,4.122-9.115,3.103c-5.975-1.744-5.452-9.289-0.753-12.107
			c0.229-0.138,0.303-0.349,0.285-0.541c2.643-1.533,5.25-3.13,7.848-4.727c1.937,1.79,3.938,3.552,5.296,5.847
			c0.624,1.046,1.111,2.175,1.368,3.378c0.128,0.606,0.046,1.258,0.303,1.799C460.029,265.071,458.258,266.117,456.569,267.265z"/>
	</g>
	<g>
		<path style="fill:#27348B;" d="M462.344,202.626c-4.131-0.863-7.38-2.598-10.685-5.168c-0.385-0.294-1.111,0.101-0.753,0.578
			c2.653,3.479,6.93,5.608,11.226,6.15C463.023,204.297,463.216,202.81,462.344,202.626z"/>
		<path style="fill:#27348B;" d="M458.048,213.164c5.452,0.661,10.189-4.571,11.611-9.72c1.946-7.004-3.708-12.887-10.538-13.521
			c-6.554-0.606-12.492,4.213-13.062,10.831c-0.431,4.874,2.8,9.564,7.224,11.051c1.386,0.808,2.901,1.294,4.516,1.432
			C457.901,213.247,457.984,213.21,458.048,213.164z M447.143,201.369c0.202-5.406,4.58-9.812,9.849-10.271
			c0.064,0.046,0.129,0.092,0.229,0.11c5.875,1.533,10.629,6.994,7.655,13.218c-3.24,6.774-11.538,5.544-16.614,1.744
			C447.501,204.802,447.07,203.196,447.143,201.369z"/>
	</g>
	<g>
		<path style="fill:#FC6B6E;" d="M111.277,80.939c-7.233,0.863-12.548,7.784-12.153,14.962c0.404,7.481,7.316,13.319,14.64,12.906
			c0.11,0.119,0.266,0.202,0.468,0.183c7.857-0.771,13.98-7.692,13.044-15.687C126.358,85.483,119.052,80.003,111.277,80.939z
			 M111.176,102.189c-0.229-0.404,0.082-1.661,0.101-2.139c0.046-0.844,0.064-1.689,0.046-2.533
			c-0.009-0.248-0.276-0.386-0.477-0.33c-0.073-0.064-0.165-0.11-0.285-0.119c-1.294-0.147-2.607-0.174-3.91-0.184
			c0.083-1.377,0.147-2.754,0.22-4.131c1.533,0.229,3.066,0.468,4.599,0.661c0.688,0.092,0.854-1.065,0.202-1.221
			c0.073-0.881,0.119-1.753,0.137-2.634c0-0.285,0-0.56,0-0.835c0.037,0,0.092-0.009,0.174-0.028
			c0.367-0.156,1.111-0.018,1.506-0.009c0.716,0,2.625-0.276,2.928,0.477c0.128,0.33-0.028,1.01-0.055,1.34
			c-0.064,0.688-0.184,1.368-0.303,2.056c-0.027,0.147,0.009,0.275,0.064,0.385c-0.027,0.248,0.11,0.514,0.422,0.477
			c0.688-0.073,1.377-0.165,2.065-0.184c0.349-0.009,0.707-0.037,1.047,0.009c0.551,0.064,0.578,0.037,0.652,0.569
			c0.165,1.138-0.175,2.533-0.441,3.718c-1.028-0.092-2.056-0.193-3.084-0.22c-0.303-0.303-0.89-0.294-1.01,0.229
			c-0.358,1.524-0.523,3.075-0.551,4.635c-0.643,0.009-1.285,0.018-1.937,0.018C113.012,102.207,111.277,102.363,111.176,102.189z"
			/>
		<path style="fill:#27348B;" d="M141.531,83.216c-0.092-3.552,1.074-9.014-3.231-10.326c-3.571-1.092-8.39-0.652-12.135-0.817
			h-0.037c0-0.009,0.009-0.018,0.009-0.018c0.101-2.111,1.184-7.095-0.872-8.628c-0.762-0.569-1.927-0.376-2.79-0.376
			c-3.029,0.018-6.067,0.193-9.087,0.294c-2.735,0.092-5.461,0.165-8.188,0.266c-0.991,0.046-2.818-0.165-3.773,0.578
			c-1.79,1.377-1.368,5.59-1.423,7.628c-3.571,0.101-7.141,0.248-10.703,0.496c-4.525,0.321-4.801,2.579-4.755,6.765
			c0.092,8.546,0.312,17.082,0.578,25.619c0.046,1.689-0.486,5.214,0.101,7.683c-0.009,0.018-0.028,0.036-0.028,0.055
			c-0.119,1.781,1.891,3.782,3.745,3.745c1.864,0.404,3.8,0.266,5.718,0.248c0.266,0,0.533,0,0.799,0
			c14.026,0.982,28.299,0.45,42.242-0.67c0.028,0.009,0.046,0.027,0.073,0.036c4.498,1.102,4.488-3.809,4.424-6.939
			C142.008,100.307,141.742,91.761,141.531,83.216z M104.751,68.529c2.588-1.459,7.554-0.771,9.766-0.762
			c0.661,0,1.414-0.055,2.194-0.11c1.46,0.037,2.974,0.156,3.947,0.624c1.771,0.844,2.001,2.056,2.111,3.672
			c-3.066-0.119-6.122-0.202-9.188-0.229c-3.185-0.037-6.37-0.018-9.555,0.027c0-0.037,0.009-0.064,0-0.101
			C103.815,70.411,104.099,69.346,104.751,68.529z M138.208,114.222c-0.358-0.092-0.633,0.055-0.808,0.275
			c-14.393,1.101-28.648,0.964-43.013,0.606c-0.046-0.147-0.156-0.257-0.34-0.257c-2.212,0.046-4.167,0.055-6.205-0.569
			c-0.009,0-0.009-0.009-0.028-0.018c-2.643-0.964-1.505-13.365-1.56-15.971c-0.138-5.489-0.239-10.978-0.33-16.467
			c-0.046-2.956-1.111-6.93,2.478-8.087c2.029-0.652,5.058-0.239,7.187-0.312c5.397-0.174,10.794-0.248,16.192-0.202
			c3.91,0.028,7.811,0.138,11.722,0.285c0.174,0.082,0.376,0.092,0.542,0.018c1.01,0.046,2.01,0.073,3.02,0.119
			c2.579,0.119,5.553-0.074,8.077,0.468c2.038,0.441,3.809,1.349,4.718,3.617c0.358,0.9,0.064,2.68,0.083,3.662
			c0.138,5.489,0.257,10.987,0.385,16.477C140.375,99.894,141.843,115.103,138.208,114.222z"/>
	</g>
	<g>
		<path style="fill:#27348B;" d="M154.899,176.232c-7.21,0.03-14.41,0.06-21.62,0.09c-6.79,0.03-13.87-0.51-20.62,0.47
			c-3.93,0.58-8.01,1.88-10.52,5.15c-3.29,4.29-2.58,10.34-2.54,15.38c0.12,16.56,0.25,33.12,0.37,49.68
			c0.13,17.87,0,35.77,0.42,53.64c0.2,7.98,1.71,19.63,11.09,21.36c-0.09,0.27,0.05,0.63,0.43,0.65
			c71.67,2.32,143.52,1.98,215.22,1.42c20.15-0.16,40.52,0.4,60.64-0.78c0.05,0.04,0.12,0.07,0.2,0.05
			c0.12-0.02,0.23-0.05,0.35-0.08c0.19-0.01,0.39-0.02,0.58-0.03c0.26-0.02,0.43-0.14,0.55-0.29c1.21-0.4,2.33-1,3.33-1.75
			c6.37-2.27,7.18-13.88,7.21-19.52c0.1-15.41,0.1-30.83,0.14-46.24l0.13-46.25c0.02-8.15,1.91-20.71-5.42-26.46
			c0.04,0.01,0.08,0.01,0.11,0.01c-0.59-0.65-1.18-1.31-1.78-1.95c-62.73-6.74-126.14-4.98-189.13-4.75
			C187.659,176.092,171.279,176.162,154.899,176.232z"/>
		<path style="fill:#FFFFFF;" d="M358.889,184.112c0.63,0.01,1.27,0.02,1.91,0.03c0.01,0.71,0.02,1.42,0.06,2.13
			c-0.06-0.05-0.13-0.09-0.2-0.14c0.02,0.08,0.03,0.16,0.07,0.23c-0.22,0.13-0.39,0.35-0.41,0.68c-1.16,21.31-1.69,42.67-1.79,64.01
			c-0.09,21.21-0.6,42.89,1.49,64.02c0.02,0.15,0.08,0.27,0.18,0.35l-0.1,0.26c-0.06-0.03-0.12-0.04-0.2-0.05
			c-18.93-1.19-38.25-0.07-57.22,0c-18.55,0.07-37.1,0.12-55.64,0.14c-37.77,0.03-75.53,0.17-113.29,0.44
			c-0.06,0-0.11,0.02-0.16,0.03c0.58-21.94-0.1-43.98-0.27-65.94c-0.16-22.08-0.34-44.16-0.51-66.24c0-0.1-0.03-0.18-0.06-0.26
			c18.89,0.63,37.94-0.37,56.84-0.51c19.39-0.15,38.79-0.18,58.19-0.22c37.08-0.06,74.13-0.1,111.2,1.23
			C358.939,184.242,358.919,184.172,358.889,184.112z"/>
		<path style="fill:#525DA2;" d="M113.409,227.542c0-0.06-0.02-0.11-0.03-0.16c1.13-0.6,2.59-0.46,3.59,0.37
			c-0.2,14.07,0.24,28.28,1.37,42.31c0.01,0.08,0.04,0.14,0.08,0.19c-0.07,0.01-0.15,0.03-0.21,0.09c-1.13,1.05-3.02,0.8-3.72-0.61
			c-0.09-0.19-0.27-0.26-0.45-0.26C115.089,255.692,113.689,241.352,113.409,227.542z"/>
		<path style="fill:#525DA2;" d="M381.57,258.454c-3.4-0.14-5.61-2.97-6.28-6.03c0.36,0.07,0.76-0.08,0.82-0.51
			c0.48-3.38,3.06-6.25,6.69-5.95c3.33,0.28,5.98,3.83,5.43,7.1C387.71,256.134,384.72,258.584,381.57,258.454z"/>
		<g>
			<path style="fill:#F2C8BF;" d="M173.152,220.351c-0.14-0.082-0.273-0.092-0.396-0.072c-1.197,0.146-2.134,0.849-2.6,1.895
				c-0.816,1.834-1.582,3.692-2.342,5.552c0.848-5.023,1.087-10.805,0.217-15.453c-0.417-2.226-1.879-5.079-4.136-3.371
				c-0.186-0.001-0.65,0.723-0.669,0.97c-0.029,0.373-0.049,0.747-0.074,1.12c-0.009-0.013-0.011-0.028-0.022-0.041
				c-1.859-2.252-4.258-2.988-5.248,0.243c-0.019,0.061-0.024,0.133-0.04,0.195c-3.492-1.117-4.491,2.224-4.431,6.66
				c-0.179-0.147-0.452-0.189-0.641,0.01c-2.897,3.045-2.921,7.349-1.75,11.204c1.678,5.523,5.545,10.005,6.9,15.442
				c1.088-0.474,2.288-0.745,3.425-1.026c2.201-0.544,4.412-0.884,6.665-1.045c0.392-1.858,0.234-3.613,0.774-5.505
				c0.735-2.576,2.526-6.079,3.692-8.583C173.733,225.844,176.415,222.25,173.152,220.351z"/>
			<path style="fill:#00A5E6;" d="M272.101,242.049c-0.683-2.486-1.367-4.973-2.056-7.457c-1.319-4.752-2.654-9.485-4.204-14.166
				c5.247,1.125,10.35,2.79,15.088,5.408c9.818,5.425,15.615,13.988,18.787,24.574c3.117,10.403,4.008,21.301,4.379,32.106
				c0.374,10.913,0.872,21.955-1.049,32.745h1.776c2.366-11.229,1.45-23.257,0.99-34.624c-0.486-12.009-1.686-24.319-6.037-35.622
				c-8.011-20.813-29.083-27.198-49.61-27.855c-0.082-0.117-0.204-0.201-0.372-0.194c-15.888,0.682-34.433,3.495-45.02,16.74
				c-5.283,6.609-6.222,14.365-8.726,22.146c-1.049,3.259-2.403,6.052-6.049,6.48c-3.659,0.431-6.15-1.857-8.48-4.517
				c-3.683-4.207-6.086-9.103-7.438-14.51c-0.144-0.577,0.104-1.113-0.337-0.972c-0.039-0.195-0.962,0.017-1.23-0.009
				c-5.337-0.518-22.278,1.145-21.017,9.533c0.734,4.885,4.146,10.767,6.404,15.116c2.437,4.693,5.429,9.189,9.338,12.79
				c15.438,14.225,39.993,8.923,49.192-9.5c0.845,4.289,1.99,8.548,2.921,12.779c2.405,10.928,3.187,21.824,3.351,32.928
				c0.348-0.176,0.756-0.285,1.235-0.285c0.15,0,0.285,0.023,0.422,0.042c0.219-9.487-0.796-19.085-2.563-28.374
				c-2.14-11.248-5.728-21.923-5.429-33.513c0.009-0.356-0.572-0.451-0.635-0.086c-0.887,5.122-0.454,10.198,0.46,15.232
				c-0.393-0.291-0.967-0.312-1.245,0.25c-8.105,16.406-29.092,22.368-44.093,11.165c-6.516-4.866-10.572-12.081-13.812-19.384
				c-2.063-4.649-5.856-11.042,0.523-14.154c4.657-2.272,9.673-3.165,14.8-3.551c-0.041,0.14-0.059,0.292-0.015,0.467
				c1.835,7.336,6.321,16.6,13.602,19.981c7.039,3.269,10.855-3.507,12.353-9.346c2.971-11.581,6.576-21.327,17.408-27.701
				c4.609-2.712,9.554-4.383,14.643-5.572c-4.709,6.434-7.968,13.686-9.761,21.496c-0.481,2.093-1.674,5.416-0.433,7.454
				c0.646,1.062,1.692,1.478,2.768,2c1.328,0.643,6.263,1.694,6.934,2.861c1.34,2.33-3.31,3.851-4.2,5.786
				c-1.037,2.255,0.506,4.006,1.728,5.819c5.742,8.518,11.472,17.062,17.335,25.501c-0.066-0.069-0.131-0.145-0.197-0.212
				c-0.256-0.259-0.597,0.117-0.388,0.388c1.879,2.426,2.807,4.941,3.817,7.794c0.055,0.156,0.151,0.253,0.26,0.304
				c0.453,5.02,0.675,10.062,0.825,15.102c0.11-0.012,0.213-0.033,0.331-0.033c0.572,0,1.041,0.155,1.426,0.397
				c-0.27-6.727-0.748-13.312-1.601-19.835c0.017-0.053,0.013-0.111,0.013-0.168c0.084-0.057,0.165-0.123,0.233-0.217
				c5.868-8.1,11.865-16.017,18.608-23.418c1.468-1.611,4.826-3.823,4.997-6.313c0.137-2.001-2.111-3.938-3.211-5.315
				c-0.7-0.876-1.399-1.752-2.099-2.628c-1.371-1.333-1.167-2.19,0.611-2.572c1.237-1.398,3.83-1.549,5.053-2.993
				c0.954-1.126,0.759-1.273,0.75-2.831C274.139,247.235,272.707,244.251,272.101,242.049z M232.3,270.591
				c-2.502-3.676-6.813-7.757-2.41-11.492c1.554-1.318,2.575-2.272,2.814-4.309c0.049-0.421-0.321-0.725-0.658-0.865
				c-1.707-0.703-3.415-1.403-5.121-2.109c-2.568-1.064-4.008-0.972-4.648-4.018c-0.732-3.482,0.479-6.906,1.574-10.257
				c1.938-5.931,4.797-11.493,8.101-16.768c1.795-0.383,3.605-0.714,5.423-1.012c-3.213,15.981-0.983,32.481,3.605,47.968
				c2.447,8.258,5.047,16.411,6.35,24.945C242.396,285.263,237.309,277.949,232.3,270.591z M248.562,291.535
				c-1.038-6.578-2.48-13.125-4.49-19.745c-2.654-8.741-5.103-17.463-6.042-26.583c-0.881-8.565-0.411-17.065,0.349-25.61
				c3.493-0.551,7.009-1.004,10.493-1.52c0.085,0.076,0.19,0.134,0.33,0.145c3.658,0.29,7.355,0.646,11.02,1.189
				c0.241,13.272-0.597,26.257-3.19,39.318C254.826,269.836,251.656,280.666,248.562,291.535z M271.86,251.294
				c-0.978,0.56-1.955,1.12-2.932,1.679c-1.02,0.584-2.745,1.132-3.442,2.034c-0.542,0.702-0.697,0.888-0.603,1.719
				c0.42,3.713,7.308,5.686,5.536,10.279c-0.403,1.044-2.866,3.05-3.632,3.89c-1.594,1.748-3.159,3.522-4.694,5.321
				c-3.94,4.619-7.754,9.399-11.28,14.361c6.96-22.672,13.604-47.46,10.375-71.019c1.187,0.188,2.367,0.406,3.544,0.641
				c1.879,8.747,5.065,17.268,6.743,26.034C272.118,247.861,272.246,249.548,271.86,251.294z"/>
			<path style="fill:#00A5E6;" d="M284.757,315.259h1.99c-0.2-0.162-0.375-0.346-0.503-0.567c-1.001-1.735-0.072-6.472-0.108-8.51
				c-0.056-3.153-0.135-6.306-0.261-9.458c-0.378-9.469-1.028-19.151-3.113-28.457c1.404-6.668,2.212-13.375,0.988-20.315
				c-0.184-1.045-1.777-0.602-1.593,0.439c0.968,5.479,0.599,10.836-0.319,16.144c-0.227-0.837-0.463-1.672-0.717-2.501
				c-0.187-0.611-1.048-0.352-0.943,0.26c0.342,1.988,0.648,3.972,0.941,5.954c-1.347,6.27-3.221,12.495-4.347,18.791
				c-0.938,5.245-1.454,10.564-1.529,15.893c-0.057,4.103-0.138,8.722,0.69,12.94c0.297-0.114,0.627-0.188,1.007-0.188
				c0.214,0,0.414,0.021,0.602,0.059c-0.089-4.861-0.822-9.802-0.645-14.666c0.245-6.741,1.245-13.401,2.798-19.959
				c0.66-2.788,1.375-5.561,2.042-8.333c1.837,14.113,2.554,28.162,2.719,42.503C284.557,315.279,284.65,315.259,284.757,315.259z"
				/>
			<path style="fill:#FC6B6E;" d="M266.692,155.066c-4.737-6.522-13.709-9.96-21.601-9.509c-3.764,0.215-7.487,1.315-10.587,3.498
				c-4.032,2.84-6.574,7.347-10.65,10.111c-5.086,3.449-10.82,2.142-16.495,1.698c-4.512-0.353-8.75,0.052-12.886,1.997
				c-14.272,6.711-23.913,30.591-13.497,43.972c4.985,6.404,13.258,11.68,21.601,11.479c3.937-0.095,6.935-1.767,10.296-3.609
				c4.201-2.303,6.831-2.72,11.567-1.886c2.209,0.389,4.329,0.997,6.594,0.972c8.416-0.092,14.975-6.692,16.301-14.706
				c1.094-6.611,0.843-13.02,6.468-17.728c3.939-3.297,9.102-4.402,12.57-8.348c0.127-0.145,0.181-0.3,0.207-0.455
				C270.917,167.602,270.508,160.321,266.692,155.066z"/>
			<g>
				<path style="fill:#27348B;" d="M218.837,279.356c-0.788-0.824-2.141-0.993-3.082-0.335c-0.193,0.135-0.353,0.305-0.492,0.491
					c-0.334,0.126-0.624,0.376-0.833,0.691c-0.092-0.01-0.19-0.007-0.299,0.021c-6.139,1.599-4.456-9.278-4.329-11.975
					c0.168-3.573,0.426-7.128,0.422-10.706c-0.001-0.588-0.966-0.764-1.063-0.144c-0.631,4.025-4.821,27.601,5.026,24.375
					c0.201,0.645,0.751,1.171,1.428,1.424c1.096,0.409,2.532,0.19,3.296-0.746C219.623,281.579,219.631,280.187,218.837,279.356z"/>
				<path style="fill:#27348B;" d="M230.767,256.739c-0.091-0.392-0.74-0.315-0.711,0.096c0.268,3.912,1.987,19.162-2.486,23.169
					c-0.321-0.667-0.885-1.201-1.635-1.388c-1.024-0.255-2.168,0.229-2.801,1.057c-0.285,0.102-0.554,0.275-0.685,0.462
					c-0.716,1.018-0.048,2.605,0.844,3.275c1.57,1.177,3.772,0.493,4.4-1.156C234.456,279.654,231.821,261.263,230.767,256.739z"/>
				<path style="fill:#FC6B6E;" d="M252.627,212.834c-18.093-1.876-33.949,12.724-36.278,30.249c-3.839,1.065-7.08,3.569-8.856,6.89
					c-0.449,1.258-0.78,2.542-1.017,3.867c-0.017,1.772-0.033,3.55,0.049,5.321c1.515,1.096,3.665,1.019,5.295,0.219
					c0.196-0.096,0.27-0.253,0.274-0.415c0.169,0.042,0.346-0.021,0.384-0.252c0.649-3.978,1.748-8.2,6.109-9.547
					c2.09-0.645,4.291-0.191,6.004,1.136c2.385,1.847,2.502,4.85,2.372,7.624c-0.003,0.047,0.014,0.081,0.019,0.122
					c-0.051,0.037-0.086,0.089-0.123,0.139c0.002,0.193-0.013,0.386-0.046,0.575c0.043,0.078,0.104,0.153,0.196,0.216
					c2.018,1.405,4.945,1.092,6.715-0.585c0.207-0.196,0.225-0.465,0.136-0.697c0.011-0.059,0.032-0.111,0.03-0.179
					c-0.16-4.264-0.463-9.026-3.957-12.009c-1.85-1.58-4.226-2.477-6.67-2.833c4.101-13.581,13.707-26.343,29.666-24.235
					c16.152,2.133,21.17,19.377,23.869,32.965c0.116,0.587,0.648,0.715,1.086,0.548c0.001,0,0.002,0.001,0.004,0.001
					c1.117,0.126,2.661-0.324,3.244-1.375c0.287-0.11,0.497-0.367,0.453-0.779C279.801,233.123,271.351,214.776,252.627,212.834z"/>
				<path style="fill:#27348B;" d="M285.593,255.957c-0.393-3.143-3.263-5.462-6.365-5.535c-0.374-0.009-0.633,0.243-0.745,0.55
					c-4.586,0.515-5.519,7.767-1.837,10.41c1.142,0.937,2.665,1.393,4.287,1.125C284.046,261.992,285.976,259.022,285.593,255.957z
					 M280.99,260.728c-2.506,0.648-4.665-1.28-4.658-3.793c0.006-2.225,1.596-3.823,3.47-4.734c1.691,0.402,3.261,1.301,3.87,3.069
					C284.434,257.484,283.345,260.12,280.99,260.728z"/>
				<path style="fill:#27348B;" d="M281.788,254.693c-0.918-0.729-2.238-0.716-3.03,0.193c-0.715,0.821-0.767,2.166,0.174,2.842
					c0.01,0.007,0.022,0.009,0.032,0.015c0.185,0.251,0.441,0.459,0.783,0.587c0.915,0.344,1.995-0.06,2.563-0.831
					C283.006,256.554,282.667,255.392,281.788,254.693z"/>
			</g>
			<path style="fill:#F2C8BF;" d="M269.266,185.475c-0.583-1.406-2.526-3.108-4.092-2.785c-0.259-2.471-0.926-4.028,0.077-6.607
				c0.677-1.741-1.067,2.398-0.871,0.52c0.057-0.545-5.732-6.316-10.408-6.239c-6.79,0.112-4.872,11.111-25.469,13.008
				c-0.007,0.001-0.012,0.004-0.019,0.004c-2.446-1.82-6.099,0.384-6.462,3.316c-0.378,3.051,2.792,7.28,6.059,6.024
				c-1.121,5.78-0.313,12.838,4.96,16.358c2.423,1.617,5.652,2.568,9.094,2.994c0.354,1.764-0.022,3.529-0.889,5.124
				c-0.08,0.148-0.092,0.285-0.075,0.412c-0.097,0.047-0.179,0.126-0.217,0.242c-1.693,5.121,5.137,7.164,8.978,7.08
				c3.807-0.083,8.266-3.728,5.455-7.692c-0.082-0.116-0.184-0.185-0.291-0.235c-0.263-1.829-0.375-3.672-0.463-5.516
				c1.148-0.254,2.227-0.559,3.206-0.911c6.076-2.182,10.484-7.282,10.209-13.922c-0.062-1.496-0.32-2.96-0.658-4.412
				C269.63,190.967,270.195,187.712,269.266,185.475z"/>
			<path style="fill:#27348B;" d="M267.892,185.195c-0.599-0.534-1.417-0.705-2.168-0.538c-0.979-4.751-1.265-7.591,0.493-11.256
				c0.389-0.812-0.852-1.569-1.299-0.808c-1.035,1.759-1.748,4.923-1.211,7.959c0.929,5.254,3.151,10.01,3.135,15.284
				c-0.042,13.636-18.149,18.44-28.932,14.563c-0.11-0.039-0.177,0.13-0.079,0.186c1.422,0.814,3.079,1.394,4.866,1.758
				c-0.114,0.087-0.213,0.201-0.266,0.373c-0.794,2.588-3.289,8.159,0.479,9.602c0.267,0.102,0.424-0.266,0.26-0.446
				c-2.12-2.336,0.009-6.19,0.739-8.748c0.067-0.237,0.027-0.439-0.075-0.594c7.445,1.106,16.689-1.33,20.985-6.514
				c5.361-6.469,2.586-13.619,1.044-20.694c0.576-0.045,1.156,0.124,1.564,0.581c0.577,0.647,0.436,1.384,0.214,2.128
				c-0.146,0.491,0.515,0.71,0.784,0.331C269.093,187.418,268.706,185.921,267.892,185.195z"/>
			<path style="fill:#27348B;" d="M227.803,188.378c-0.287-0.6-0.935-1.01-1.544-1.229c-0.404-0.146-0.996-0.274-1.477-0.176
				c0.386-0.495,0.894-0.755,1.509-1.014c0.395-0.166,0.385-0.789-0.107-0.794c-2.254-0.024-3.376,3.179-2.226,4.842
				c0.201,0.291,0.607,0.044,0.468-0.273c-0.297-0.677-0.277-1.417-0.013-2.093c0.489,0.122,0.984,0.013,1.481,0.192
				c0.559,0.201,0.906,0.6,1.319,1.001C227.531,189.143,227.983,188.755,227.803,188.378z"/>
			<path style="fill:#00A5E6;" d="M255.08,298.634c-0.129-0.668-0.61-1.268-1.266-1.445c0.124-0.211-0.004-0.531-0.307-0.553
				c-1.923-0.138-3.221,2.282-1.72,3.668C253.18,301.59,255.459,300.599,255.08,298.634z"/>
			<path style="fill:#00A5E6;" d="M255.762,308.632c-1.278-0.838-2.892-0.041-2.993,1.332c-0.082,0.23-0.141,0.473-0.15,0.738
				c-0.02,0.548,0.135,0.818,0.617,1.062c0.44,0.223,1.081,0.703,1.585,0.705c0.834,0.003,1.577-0.935,1.768-1.662
				C256.806,309.976,256.482,309.104,255.762,308.632z"/>
			<path style="fill:#27348B;" d="M163.276,210.26c-0.026-0.127-0.206-0.069-0.19,0.052c0.66,4.846,0.977,9.734,0.837,14.624
				c-0.012,0.43,0.66,0.431,0.668,0C164.683,219.963,164.288,215.129,163.276,210.26z"/>
			<path style="fill:#27348B;" d="M165.019,226.359c-3.001-0.522-6.13-0.126-8.918,1.093c-0.278,0.122-0.08,0.577,0.206,0.488
				c2.883-0.895,5.618-1.142,8.611-0.835C165.34,227.149,165.44,226.433,165.019,226.359z"/>
			<path style="fill:#27348B;" d="M157.925,210.731c-0.027-0.138-0.263-0.109-0.249,0.034c0.505,4.893,1.589,9.642,1.701,14.582
				c0.01,0.443,0.678,0.444,0.689,0C160.186,220.434,158.884,215.515,157.925,210.731z"/>
			<path style="fill:#27348B;" d="M155.029,226.034c-0.668-2.584-1.368-5.117-1.719-7.77c-0.021-0.16-0.269-0.172-0.26,0
				c0.13,2.68,0.455,5.401,1.348,7.944C154.536,226.601,155.135,226.447,155.029,226.034z"/>
			<path style="fill:#27348B;" d="M254.404,194.922c-0.224-1.314-1.319-2.221-2.668-2.022c-0.539,0.08-1.355,0.365-1.983,0.804
				c0.893-2.977,0.842-6.324-0.452-9.165c-0.253-0.556-1.078-0.149-0.951,0.401c0.787,3.42,1.073,6.456,0.331,9.93
				c-0.04,0.186,0.055,0.31,0.182,0.358c0.007,0.051,0.01,0.102,0.024,0.155c0.096,0.363,0.604,0.338,0.712,0
				c0.231-0.725,1.373-1.197,2.064-1.331c0.922-0.179,1.559,0.377,1.584,1.284c0.019,0.694-0.383,1.24-0.948,1.604
				c-0.166,0.107-1.717,0.818-1.86,0.525c-0.317-0.65-1.187-0.157-1.086,0.458c0.236,1.429,2.45,0.695,3.249,0.282
				C253.824,197.57,254.643,196.324,254.404,194.922z"/>
			<path style="fill:#27348B;" d="M243.062,185.652c-0.196-0.689-1.235-0.401-1.071,0.295c0.932,3.971-6.409,5.017-6.526,0.478
				c-0.005-0.188-0.28-0.286-0.373-0.101c-1.269,2.526,1.813,4.294,3.988,4.099C241.473,190.209,243.796,188.227,243.062,185.652z"
				/>
			<path style="fill:#27348B;" d="M262.713,184.667c-0.196-0.689-1.235-0.401-1.071,0.295c0.932,3.971-6.409,5.017-6.526,0.478
				c-0.005-0.188-0.28-0.286-0.373-0.101c-1.269,2.526,1.813,4.294,3.988,4.099C261.124,189.223,263.447,187.241,262.713,184.667z"
				/>
			<path style="fill:#27348B;" d="M254.115,203.622c-2.258,2.143-5.272,2.551-7.988,0.987c-0.374-0.216-0.83,0.324-0.477,0.618
				c2.67,2.229,7.059,1.966,9.33-0.74C255.48,203.891,254.695,203.071,254.115,203.622z"/>
		</g>
	</g>
</g>
</svg>
